<svg width="20" height="20" viewBox="0 0 20 20" fill="none" xmlns="http://www.w3.org/2000/svg">
<path d="M9.53491 19.0698C4.27908 19.0698 0 14.7907 0 9.53491C0 4.27908 4.27908 0 9.53491 0C14.7907 0 19.0698 4.27908 19.0698 9.53491C19.0698 14.7907 14.7907 19.0698 9.53491 19.0698ZM9.53491 1.39535C5.04187 1.39535 1.39535 5.05118 1.39535 9.53491C1.39535 14.0186 5.04187 17.6745 9.53491 17.6745C14.0279 17.6745 17.6745 14.0186 17.6745 9.53491C17.6745 5.05118 14.0279 1.39535 9.53491 1.39535Z" fill="#69735D"/>
<path d="M19.3023 19.9996C19.1255 19.9996 18.9488 19.9345 18.8093 19.7949L16.9488 17.9345C16.679 17.6647 16.679 17.2182 16.9488 16.9484C17.2186 16.6787 17.6651 16.6787 17.9348 16.9484L19.7953 18.8089C20.0651 19.0787 20.0651 19.5252 19.7953 19.7949C19.6558 19.9345 19.479 19.9996 19.3023 19.9996Z" fill="#69735D"/>
</svg>
